<?xml version="1.0" standalone="no"?>
<!DOCTYPE svg PUBLIC "-//W3C//DTD SVG 20010904//EN"
 "http://www.w3.org/TR/2001/REC-SVG-20010904/DTD/svg10.dtd">
<svg version="1.0" xmlns="http://www.w3.org/2000/svg"
 width="512.000000pt" height="512.000000pt" viewBox="0 0 512.000000 512.000000"
 preserveAspectRatio="xMidYMid meet">

<g transform="translate(0.000000,512.000000) scale(0.100000,-0.100000)"
fill="#000000" stroke="none">
<path d="M1106 4819 c-35 -28 -34 -69 3 -111 l29 -33 -29 -33 c-34 -38 -38
-83 -9 -112 32 -32 70 -30 118 7 l34 25 28 -27 c54 -52 130 -26 130 44 0 24
-8 43 -26 62 l-26 27 26 35 c32 42 34 89 4 117 -31 28 -71 25 -110 -9 l-33
-29 -33 29 c-38 34 -70 37 -106 8z"/>
<path d="M3721 4794 c-12 -15 -21 -33 -21 -41 0 -19 25 -67 44 -82 14 -12 13
-17 -9 -43 -36 -43 -41 -75 -18 -106 29 -39 80 -41 122 -7 l31 27 31 -27 c42
-34 93 -32 122 7 23 31 18 63 -17 105 l-24 28 24 28 c35 41 40 74 17 105 -29
39 -80 41 -122 7 l-31 -27 -31 26 c-42 35 -90 35 -118 0z"/>
<path d="M2395 4615 c-276 -45 -528 -169 -729 -358 l-78 -74 -197 -10 -196 -9
-40 42 c-89 94 -234 122 -343 68 -62 -31 -126 -100 -145 -157 -13 -40 -15 -41
-103 -69 -187 -61 -365 -163 -450 -261 -94 -108 -134 -264 -101 -394 72 -280
377 -553 902 -809 96 -47 175 -87 175 -87 0 -1 -54 -152 -120 -336 -66 -183
-120 -343 -120 -356 0 -57 91 -87 127 -42 10 13 124 319 253 680 189 527 239
657 255 662 31 11 548 17 563 7 10 -7 -24 -155 -158 -690 -93 -375 -170 -689
-170 -697 0 -25 47 -65 75 -65 61 0 60 -2 246 744 l173 698 31 -7 c16 -3 64
-8 106 -12 69 -5 78 -4 98 16 39 39 23 102 -31 120 -69 21 -303 43 -528 48
-356 8 -581 -24 -756 -108 -198 -94 -251 -265 -133 -430 11 -16 18 -29 14 -29
-3 0 -34 14 -68 31 -421 213 -716 467 -781 672 -67 213 103 397 471 511 18 6
25 1 42 -31 24 -47 98 -117 144 -136 169 -71 361 31 399 213 l12 58 165 7
c198 9 552 -6 803 -35 680 -78 1331 -250 1866 -494 113 -51 311 -155 339 -178
25 -20 76 -12 100 16 32 37 29 63 -10 100 -43 39 -297 171 -487 252 -79 34
-147 68 -151 75 -4 8 -28 57 -53 109 -67 141 -139 243 -256 361 -190 192 -417
315 -690 374 -107 23 -352 28 -465 10z m497 -173 c310 -80 586 -287 737 -553
17 -31 31 -58 31 -61 0 -3 -71 17 -157 43 -499 155 -1102 267 -1586 295 -116
7 -117 7 -100 27 30 32 204 144 275 176 183 82 335 112 538 106 120 -3 165 -9
262 -33z m-1868 -322 c84 -74 66 -194 -36 -235 -93 -37 -188 29 -188 130 0 79
59 135 142 135 38 0 54 -6 82 -30z m264 -1072 c-3 -7 -26 -74 -53 -148 -26
-74 -50 -137 -52 -139 -7 -8 -62 52 -78 84 -40 86 -5 139 130 197 49 21 58 22
53 6z"/>
<path d="M4220 4279 c-185 -83 -230 -331 -85 -472 89 -87 217 -108 327 -54
179 88 220 324 80 464 -80 81 -221 108 -322 62z m210 -167 c50 -50 59 -94 31
-156 -16 -38 -29 -51 -67 -67 -62 -28 -106 -19 -156 31 -33 33 -38 44 -38 84
0 91 54 146 144 146 43 0 53 -4 86 -38z"/>
<path d="M1482 3852 c-132 -47 -187 -177 -127 -299 104 -209 447 -161 463 64
6 95 -40 173 -129 218 -67 34 -141 40 -207 17z m133 -146 c88 -37 66 -136 -31
-136 -98 0 -142 100 -60 136 40 17 49 17 91 0z"/>
<path d="M2556 3750 c-124 -38 -191 -181 -136 -294 91 -188 377 -190 454 -4
73 174 -122 356 -318 298z m155 -169 c50 -51 30 -106 -43 -117 -88 -15 -154
76 -92 125 41 32 98 28 135 -8z"/>
<path d="M572 3561 c-63 -22 -107 -61 -133 -116 -89 -193 153 -391 352 -287
143 75 161 250 36 357 -43 37 -118 65 -171 65 -17 -1 -55 -9 -84 -19z m133
-145 c61 -26 73 -100 20 -124 -47 -21 -94 -15 -126 17 -42 42 -36 81 16 109
27 15 49 15 90 -2z"/>
<path d="M3592 3455 c-203 -63 -211 -324 -12 -414 86 -39 212 -20 278 42 63
59 83 167 44 243 -30 58 -92 110 -153 128 -63 19 -99 19 -157 1z m148 -164
c17 -12 26 -29 28 -54 4 -45 -25 -67 -86 -67 -35 0 -49 6 -73 29 -31 32 -36
56 -15 83 30 41 98 45 146 9z"/>
<path d="M4705 3215 c-43 -42 -34 -68 59 -164 107 -110 161 -188 186 -269 25
-80 25 -128 1 -192 -64 -168 -299 -299 -673 -374 -109 -22 -359 -56 -413 -56
-17 0 -17 2 5 16 47 32 102 89 123 129 32 61 30 154 -7 225 -115 222 -524 443
-1097 595 -140 37 -163 36 -193 -7 -9 -12 -16 -30 -16 -39 0 -32 39 -66 87
-78 27 -7 64 -16 83 -21 l36 -10 -50 -380 c-37 -279 -47 -388 -40 -407 19 -54
106 -56 130 -3 7 14 33 187 58 385 26 197 48 361 50 363 13 12 474 -178 524
-217 l24 -18 -37 -1177 c-33 -1079 -35 -1179 -21 -1201 31 -47 105 -42 126 7
5 13 21 394 35 847 14 454 27 827 29 829 3 2 67 8 143 13 846 55 1324 338
1255 742 -24 137 -100 264 -245 405 -94 91 -120 100 -162 57z m-855 -751 c11
-22 20 -50 20 -61 0 -32 -46 -81 -101 -109 l-49 -24 0 73 c0 41 3 115 7 166
l6 92 49 -48 c27 -26 57 -66 68 -89z"/>
<path d="M4361 2859 c-186 -35 -251 -244 -115 -369 59 -54 102 -71 180 -71 78
0 137 24 182 75 43 49 52 75 52 142 0 143 -144 251 -299 223z m119 -168 c17
-12 26 -29 28 -54 4 -45 -25 -67 -86 -67 -35 0 -49 6 -73 29 -34 35 -36 50 -9
84 31 40 90 43 140 8z"/>
<path d="M3910 1590 c-29 -29 -25 -73 9 -112 l29 -33 -29 -33 c-36 -40 -38
-80 -6 -110 34 -32 77 -29 112 8 l28 29 34 -29 c88 -78 185 21 103 105 l-30
31 30 29 c36 35 41 84 10 115 -29 29 -73 25 -113 -10 l-34 -29 -28 29 c-35 36
-85 40 -115 10z"/>
<path d="M752 1520 c-12 -12 -22 -22 -22 -24 0 -2 -45 -128 -100 -282 -55
-153 -100 -288 -100 -300 0 -55 87 -86 125 -44 24 26 214 556 215 597 0 22 -8
38 -26 52 -34 27 -64 27 -92 1z"/>
</g>
</svg>
